<svg width="38" height="38" viewBox="0 0 38 38" fill="none" xmlns="http://www.w3.org/2000/svg">
<g filter="url(#filter0_d_277_2637)">
<circle cx="19" cy="19" r="15" fill="#EEEFFB"/>
</g>
<path d="M10.9792 14.3646C10.9792 14.2071 11.0418 14.0561 11.1532 13.9447C11.2645 13.8334 11.4155 13.7708 11.573 13.7708H12.0147C12.7668 13.7708 13.2181 14.2767 13.4754 14.7469C13.6472 15.0604 13.7715 15.4238 13.8688 15.7531C13.8952 15.7511 13.9216 15.75 13.948 15.75H23.8422C24.4993 15.75 24.9743 16.3786 24.7938 17.0111L23.3467 22.0849C23.2169 22.54 22.9424 22.9404 22.5647 23.2255C22.187 23.5107 21.7267 23.665 21.2535 23.6651H16.5447C16.0677 23.6651 15.6039 23.5085 15.2246 23.2193C14.8453 22.93 14.5714 22.5243 14.4452 22.0643L13.8435 19.8698L12.846 16.5068L12.8452 16.5005C12.7217 16.0516 12.6061 15.6312 12.4335 15.3177C12.2681 15.0129 12.1351 14.9583 12.0155 14.9583H11.573C11.4155 14.9583 11.2645 14.8958 11.1532 14.7844C11.0418 14.6731 10.9792 14.522 10.9792 14.3646ZM14.9954 19.5816L15.5899 21.75C15.7087 22.1791 16.099 22.4776 16.5447 22.4776H21.2535C21.4686 22.4776 21.6778 22.4075 21.8495 22.2779C22.0212 22.1483 22.1461 21.9664 22.2051 21.7595L23.5802 16.9375H14.2132L14.9843 19.5397L14.9954 19.5816Z" fill="#2F1AC4"/>
<path d="M17.7084 26.0416C17.7084 26.4616 17.5416 26.8643 17.2447 27.1612C16.9477 27.4582 16.545 27.625 16.1251 27.625C15.7052 27.625 15.3024 27.4582 15.0055 27.1612C14.7086 26.8643 14.5417 26.4616 14.5417 26.0416C14.5417 25.6217 14.7086 25.219 15.0055 24.9221C15.3024 24.6251 15.7052 24.4583 16.1251 24.4583C16.545 24.4583 16.9477 24.6251 17.2447 24.9221C17.5416 25.219 17.7084 25.6217 17.7084 26.0416ZM16.5209 26.0416C16.5209 25.9367 16.4792 25.836 16.405 25.7617C16.3307 25.6875 16.2301 25.6458 16.1251 25.6458C16.0201 25.6458 15.9194 25.6875 15.8452 25.7617C15.771 25.836 15.7292 25.9367 15.7292 26.0416C15.7292 26.1466 15.771 26.2473 15.8452 26.3215C15.9194 26.3958 16.0201 26.4375 16.1251 26.4375C16.2301 26.4375 16.3307 26.3958 16.405 26.3215C16.4792 26.2473 16.5209 26.1466 16.5209 26.0416Z" fill="#2F1AC4"/>
<path d="M23.2502 26.0416C23.2502 26.4616 23.0833 26.8643 22.7864 27.1612C22.4895 27.4582 22.0868 27.625 21.6668 27.625C21.2469 27.625 20.8442 27.4582 20.5472 27.1612C20.2503 26.8643 20.0835 26.4616 20.0835 26.0416C20.0835 25.6217 20.2503 25.219 20.5472 24.9221C20.8442 24.6251 21.2469 24.4583 21.6668 24.4583C22.0868 24.4583 22.4895 24.6251 22.7864 24.9221C23.0833 25.219 23.2502 25.6217 23.2502 26.0416ZM22.0627 26.0416C22.0627 25.9367 22.021 25.836 21.9467 25.7617C21.8725 25.6875 21.7718 25.6458 21.6668 25.6458C21.5618 25.6458 21.4612 25.6875 21.3869 25.7617C21.3127 25.836 21.271 25.9367 21.271 26.0416C21.271 26.1466 21.3127 26.2473 21.3869 26.3215C21.4612 26.3958 21.5618 26.4375 21.6668 26.4375C21.7718 26.4375 21.8725 26.3958 21.9467 26.3215C22.021 26.2473 22.0627 26.1466 22.0627 26.0416Z" fill="#2F1AC4"/>
<defs>
<filter id="filter0_d_277_2637" x="0" y="0" width="38" height="38" filterUnits="userSpaceOnUse" color-interpolation-filters="sRGB">
<feFlood flood-opacity="0" result="BackgroundImageFix"/>
<feColorMatrix in="SourceAlpha" type="matrix" values="0 0 0 0 0 0 0 0 0 0 0 0 0 0 0 0 0 0 127 0" result="hardAlpha"/>
<feOffset/>
<feGaussianBlur stdDeviation="2"/>
<feColorMatrix type="matrix" values="0 0 0 0 0 0 0 0 0 0 0 0 0 0 0 0 0 0 0.05 0"/>
<feBlend mode="normal" in2="BackgroundImageFix" result="effect1_dropShadow_277_2637"/>
<feBlend mode="normal" in="SourceGraphic" in2="effect1_dropShadow_277_2637" result="shape"/>
</filter>
</defs>
</svg>
